<?xml version="1.0" encoding="UTF-8" standalone="no"?>
<!-- Created with Inkscape (http://www.inkscape.org/) -->

<svg
   xmlns:dc="http://purl.org/dc/elements/1.1/"
   xmlns:cc="http://creativecommons.org/ns#"
   xmlns:rdf="http://www.w3.org/1999/02/22-rdf-syntax-ns#"
   xmlns:svg="http://www.w3.org/2000/svg"
   xmlns="http://www.w3.org/2000/svg"
   xmlns:sodipodi="http://sodipodi.sourceforge.net/DTD/sodipodi-0.dtd"
   xmlns:inkscape="http://www.inkscape.org/namespaces/inkscape"
   width="60.643124"
   height="53.572056"
   id="svg2"
   version="1.1"
   inkscape:version="0.48.4 r9939"
   sodipodi:docname="New document 1">
  <defs
     id="defs4" />
  <sodipodi:namedview
     id="base"
     pagecolor="#ffffff"
     bordercolor="#666666"
     borderopacity="1.0"
     inkscape:pageopacity="0.0"
     inkscape:pageshadow="2"
     inkscape:zoom="3.959798"
     inkscape:cx="-68.491066"
     inkscape:cy="18.052642"
     inkscape:document-units="px"
     inkscape:current-layer="layer1"
     showgrid="false"
     fit-margin-top="0"
     fit-margin-left="0"
     fit-margin-right="0"
     fit-margin-bottom="0"
     inkscape:window-width="1920"
     inkscape:window-height="1028"
     inkscape:window-x="-8"
     inkscape:window-y="-8"
     inkscape:window-maximized="1" />
  <metadata
     id="metadata7">
    <rdf:RDF>
      <cc:Work
         rdf:about="">
        <dc:format>image/svg+xml</dc:format>
        <dc:type
           rdf:resource="http://purl.org/dc/dcmitype/StillImage" />
        <dc:title></dc:title>
      </cc:Work>
    </rdf:RDF>
  </metadata>
  <g
     inkscape:label="Layer 1"
     inkscape:groupmode="layer"
     id="layer1"
     transform="translate(-211.10489,-336.39957)">
    <rect
       style="color:#000000;fill:#db1919;fill-opacity:1;fill-rule:nonzero;stroke:none;stroke-width:0.79799998;marker:none;visibility:visible;display:inline;overflow:visible;enable-background:accumulate"
       id="rect3062"
       width="60.643124"
       height="53.572056"
       x="211.10489"
       y="336.39957" />
    <flowRoot
       xml:space="preserve"
       id="flowRoot2985"
       style="font-size:40px;font-style:normal;font-weight:normal;line-height:125%;letter-spacing:0px;word-spacing:0px;color:#000000;fill:#00ff00;fill-opacity:1;fill-rule:nonzero;stroke:#333333;marker:none;visibility:visible;display:inline;overflow:visible;enable-background:accumulate;font-family:Sans"
       transform="translate(-3.7893038e-7,-2.3214286)"><flowRegion
         id="flowRegion2987"><rect
           id="rect2989"
           width="27.942301"
           height="37.454647"
           x="214.28572"
           y="338.07648"
           style="color:#000000;fill:#00ff00;fill-opacity:1;fill-rule:nonzero;stroke:#333333;marker:none;visibility:visible;display:inline;overflow:visible;enable-background:accumulate" /></flowRegion><flowPara
         id="flowPara2991"
         style="font-size:40px;font-style:normal;font-variant:normal;font-weight:bold;font-stretch:normal;text-align:start;line-height:125%;writing-mode:lr-tb;text-anchor:start;color:#000000;fill:#00ff00;fill-opacity:1;fill-rule:nonzero;stroke:#333333;marker:none;visibility:visible;display:inline;overflow:visible;enable-background:accumulate;font-family:Constantia;-inkscape-font-specification:Constantia Bold">A</flowPara></flowRoot>    <flowRoot
       transform="translate(26.016454,2.6738925)"
       xml:space="preserve"
       id="flowRoot2985-1"
       style="font-size:40px;font-style:normal;font-weight:normal;line-height:125%;letter-spacing:0px;word-spacing:0px;color:#000000;fill:#00ff00;fill-opacity:1;fill-rule:nonzero;stroke:#333333;marker:none;visibility:visible;display:inline;overflow:visible;enable-background:accumulate;font-family:Sans"><flowRegion
         id="flowRegion2987-7"><rect
           id="rect2989-4"
           width="39.559055"
           height="41.495258"
           x="214.28572"
           y="338.07648"
           style="color:#000000;fill:#00ff00;fill-opacity:1;fill-rule:nonzero;stroke:#333333;marker:none;visibility:visible;display:inline;overflow:visible;enable-background:accumulate" /></flowRegion><flowPara
         id="flowPara2991-0"
         style="font-size:40px;font-style:normal;font-variant:normal;font-weight:bold;font-stretch:normal;text-align:start;line-height:125%;writing-mode:lr-tb;text-anchor:start;color:#000000;fill:#00ff00;fill-opacity:1;fill-rule:nonzero;stroke:#333333;marker:none;visibility:visible;display:inline;overflow:visible;enable-background:accumulate;font-family:Constantia;-inkscape-font-specification:Constantia Bold">K</flowPara></flowRoot>    <g
       transform="translate(5.0557884,18.583795)"
       style="font-size:40px;font-style:normal;font-weight:normal;line-height:125%;letter-spacing:0px;word-spacing:0px;fill:#00f600;fill-opacity:1;stroke:none;font-family:Sans"
       id="flowRoot2985-9">
      <path
         d="m 242.11328,358.20783 c 0.22133,0.70313 0.39711,1.39975 0.52734,2.08984 0.20831,-0.71613 0.42315,-1.39322 0.64454,-2.03125 l 4.0625,-11.69922 c 0.26038,-0.7682 0.44593,-1.35739 0.55664,-1.76757 0.11064,-0.41013 0.16598,-0.73891 0.16601,-0.98633 -3e-5,-0.22133 -0.0619,-0.3906 -0.18554,-0.50781 -0.12374,-0.11717 -0.30928,-0.20831 -0.55665,-0.27344 l -1.875,-0.52735 -0.0586,-1.03515 c 1.88799,0.0521 3.42445,0.0781 4.60938,0.0781 1.23694,3e-5 2.6497,-0.026 4.23828,-0.0781 l 0.0977,0.99609 -2.08984,0.60547 c -0.49483,0.15628 -0.86918,0.39716 -1.12305,0.72266 -0.25394,0.32554 -0.50459,0.83335 -0.75195,1.52343 l -8.41797,23.4961 -2.12891,0.17578 -4.9414,-15.48828 c -0.26044,-0.8203 -0.52737,-1.70571 -0.80078,-2.65625 -0.31252,0.93752 -0.612,1.81642 -0.89844,2.63672 l -5.39063,15.33203 -2.10937,0.17578 -7.61719,-23.4375 c -0.29948,-0.89841 -0.58919,-1.50714 -0.86914,-1.82617 -0.27995,-0.31899 -0.66732,-0.55662 -1.16211,-0.71289 l -1.89453,-0.54688 -0.0586,-0.99609 c 1.75781,0.0521 3.52864,0.0781 5.3125,0.0781 2.34374,3e-5 4.6354,-0.026 6.875,-0.0781 l 0.11718,0.99609 -1.93359,0.54688 c -0.26043,0.0781 -0.44923,0.1758 -0.56641,0.29297 -0.11719,0.11721 -0.17579,0.29299 -0.17578,0.52734 -1e-5,0.26044 0.0488,0.59898 0.14649,1.01562 0.0976,0.4167 0.25715,0.9831 0.47851,1.69922 l 3.63282,11.66016 c 0.20832,0.70313 0.3841,1.39975 0.52734,2.08984 0.20832,-0.71613 0.41665,-1.39322 0.625,-2.03125 l 5.78125,-16.8164 1.97266,-0.17578 z"
         style="font-variant:normal;font-weight:bold;font-stretch:normal;text-align:start;writing-mode:lr-tb;text-anchor:start;fill:#00f600;fill-opacity:1;stroke:#333333;font-family:Constantia;-inkscape-font-specification:Constantia Bold"
         id="path3034"
         inkscape:connector-curvature="0" />
    </g>
  </g>
</svg>
